<svg width="90" height="86" viewBox="0 0 90 86" fill="none" xmlns="http://www.w3.org/2000/svg">
<path d="M48.504 3.7391L61.9165 20.3842C62.7503 21.4189 63.844 22.2135 65.0856 22.6867L85.0608 30.2992C87.7433 31.3215 88.7957 34.5603 87.2263 36.9641L75.5406 54.8639C74.8142 55.9765 74.3965 57.2622 74.3302 58.5894L73.2629 79.9392C73.1196 82.8064 70.3645 84.8081 67.5933 84.0584L46.9586 78.476C45.6759 78.1289 44.3241 78.1289 43.0414 78.476L22.4067 84.0584C19.6355 84.8081 16.8804 82.8064 16.7371 79.9392L15.6698 58.5894C15.6035 57.2622 15.1857 55.9765 14.4593 54.8639L2.77366 36.9641C1.20434 34.5603 2.25669 31.3215 4.93923 30.2992L24.9144 22.6867C26.156 22.2135 27.2497 21.4189 28.0835 20.3842L41.496 3.73911C43.2972 1.50377 46.7027 1.50377 48.504 3.7391Z" fill="#A42FFF" stroke="#FFE8F5" stroke-width="3"/>
</svg>
